# xmcd CD database file
#
# Track frame offsets:
#	150
#	13459
#	37065
#	63881
#	89587
#	106640
#	124064
#	150640
#	168861
#	188292
#
# Disc length: 2767 seconds
#
# Revision: 0
# Processed by: cddbd v1.5.2PL0 Copyright (c) Steve Scherf et al.
# Submitted via: CDex 1.51
#
DISCID=750acd0a
DTITLE=Jeff Cascaro - Love and Blues In The City
DYEAR=2017
DGENRE=Jazz
TTITLE0=My Babe
TTITLE1=Ode To Billy Joe
TTITLE2=Inner City Blues
TTITLE3=A Taste Of Honey 
TTITLE4=Stormy Monday Blues
TTITLE5=Aint No Love In The Heart Of The City 
TTITLE6=Since I Fell For You
TTITLE7=It's Alright
TTITLE8=I Love You Baby
TTITLE9=Hold On To Now
EXTD=YEAR: 2017
EXTT0=
EXTT1=
EXTT2=
EXTT3=
EXTT4=
EXTT5=
EXTT6=
EXTT7=
EXTT8=
EXTT9=
PLAYORDER=
